<?xml version="1.0" standalone="no"?>
<!DOCTYPE svg PUBLIC "-//W3C//DTD SVG 20010904//EN"
 "http://www.w3.org/TR/2001/REC-SVG-20010904/DTD/svg10.dtd">
<svg version="1.0" xmlns="http://www.w3.org/2000/svg"
 width="300.000000pt" height="300.000000pt" viewBox="0 0 300.000000 300.000000"
 preserveAspectRatio="xMidYMid meet">
<metadata>
Created by potrace 1.14, written by Peter Selinger 2001-2017
</metadata>
<g transform="translate(0.000000,300.000000) scale(0.100000,-0.100000)"
fill="#000000" stroke="none">
<path d="M1563 2985 c-97 -30 -182 -101 -227 -191 -22 -44 -44 -126 -38 -146
1 -3 -156 -6 -348 -6 -373 1 -382 0 -409 -50 -6 -10 -10 -141 -10 -308 0 -159
0 -323 -1 -364 l0 -76 -33 1 c-118 4 -255 -84 -313 -201 -32 -66 -38 -93 -36
-181 1 -59 6 -84 31 -135 61 -127 157 -194 309 -217 l44 -6 -1 -356 c-1 -391
2 -409 57 -424 15 -5 180 -8 367 -9 l339 -1 21 -56 c40 -110 104 -181 204
-227 47 -22 70 -27 146 -27 76 0 98 4 145 26 102 48 173 127 205 230 l18 56
375 -1 c414 -1 423 0 441 58 6 18 9 202 8 459 l-2 429 -29 25 c-26 22 -35 24
-70 17 -23 -4 -69 -8 -102 -8 -78 0 -132 33 -164 102 -63 133 48 289 189 267
124 -18 117 -19 149 12 l29 28 0 430 c0 237 -3 440 -8 452 -4 12 -20 30 -34
39 -24 16 -64 17 -405 17 l-378 0 -5 44 c-6 59 -58 160 -104 206 -20 21 -66
52 -102 70 -53 26 -78 32 -140 33 -42 1 -95 -4 -118 -11z"/>
</g>
</svg>
